<svg xmlns="http://www.w3.org/2000/svg" viewBox="0 0 32 32">
  <rect width="32" height="32" rx="5" fill="#0b1d3a"/>
  <svg viewBox="0 0 1800 1200" x="1" y="5" width="30" height="22">
<g transform="translate(0.000000,1200.000000) scale(0.100000,-0.100000)"
fill="#ffffff" stroke="none">
<path d="M12155 8661 c-195 -10 -398 -27 -525 -47 -53 -8 -116 -14 -140 -14
-25 0 -58 -7 -74 -15 -15 -8 -54 -15 -85 -15 -65 0 -103 -9 -95 -21 8 -14 98
-11 146 5 24 8 102 17 173 20 72 3 168 10 215 15 135 15 556 13 730 -4 265
-26 383 -52 501 -112 95 -48 129 -93 129 -171 0 -122 -121 -271 -363 -447 -37
-27 -64 -52 -60 -56 5 -4 40 -24 78 -44 39 -21 83 -47 98 -57 l28 -20 89 61
c109 74 124 86 223 181 139 133 207 261 207 393 0 79 -18 122 -77 180 -38 39
-133 90 -189 102 -16 4 -49 13 -74 20 -141 43 -562 63 -935 46z"/>
<path d="M11103 8523 c15 -2 39 -2 55 0 15 2 2 4 -28 4 -30 0 -43 -2 -27 -4z"/>
<path d="M11785 8505 c-5 -1 -68 -8 -140 -15 -71 -6 -155 -16 -185 -21 -30 -6
-91 -14 -135 -19 -77 -8 -119 -15 -270 -45 -118 -24 -188 -37 -235 -45 -25 -4
-67 -13 -95 -20 -131 -33 -155 -39 -230 -55 -44 -9 -95 -23 -113 -31 -18 -8
-45 -14 -60 -14 -39 0 -73 -11 -66 -21 8 -14 81 -11 138 5 48 14 111 24 381
60 318 44 614 60 905 52 268 -8 364 -27 438 -90 16 -15 22 -30 22 -63 0 -59
-31 -105 -120 -178 -78 -65 -110 -95 -110 -105 0 -4 98 -10 218 -13 165 -5
240 -12 312 -27 52 -12 100 -22 107 -22 40 -4 290 188 344 264 94 131 73 227
-65 295 -94 47 -158 65 -331 93 -101 17 -167 20 -410 19 -159 0 -294 -2 -300
-4z"/>
<path d="M13326 7891 c-34 -48 -157 -163 -256 -237 -41 -31 -76 -57 -78 -59
-6 -5 29 -75 39 -75 42 0 237 208 308 328 48 82 38 117 -13 43z"/>
<path d="M8675 7740 c-43 -5 -33 10 -123 -200 -8 -19 -21 -48 -28 -63 -8 -16
-14 -32 -14 -37 0 -5 -13 -37 -28 -72 -16 -35 -37 -83 -47 -108 -9 -25 -24
-61 -33 -80 -21 -47 -35 -81 -72 -175 -18 -44 -39 -95 -46 -112 -14 -30 -22
-50 -58 -135 -7 -18 -18 -44 -24 -58 -6 -14 -27 -65 -47 -115 -21 -49 -41 -99
-46 -110 -5 -11 -13 -33 -19 -49 -6 -17 -14 -25 -19 -20 -8 9 -51 135 -85 249
-10 33 -24 78 -31 100 -7 22 -20 67 -30 100 -10 33 -23 76 -30 95 -7 19 -20
62 -30 95 -9 33 -23 78 -30 100 -6 22 -20 67 -30 100 -9 33 -23 78 -30 100 -6
22 -20 67 -29 100 -10 33 -22 74 -28 90 -5 17 -13 44 -17 60 -4 17 -13 40 -19
52 -7 12 -12 31 -12 42 0 49 -10 51 -321 51 -324 0 -311 3 -285 -72 8 -23 31
-88 51 -143 20 -55 47 -136 62 -180 14 -44 30 -84 34 -89 5 -6 9 -21 9 -34 0
-13 5 -33 12 -45 6 -12 15 -35 19 -52 4 -16 17 -55 29 -85 12 -30 26 -68 30
-85 5 -16 24 -73 43 -125 45 -123 40 -109 77 -230 17 -58 37 -114 43 -125 5
-11 14 -33 18 -50 8 -30 32 -103 48 -140 11 -28 61 -174 71 -210 11 -39 23
-75 77 -220 8 -22 22 -55 30 -72 l16 -33 278 0 279 0 29 63 c16 34 39 87 51
117 12 30 28 69 36 85 47 106 67 154 114 265 58 139 61 147 118 275 22 50 50
115 62 145 26 68 42 104 63 153 23 49 44 99 62 139 7 18 21 49 29 70 9 20 16
41 16 46 0 6 6 23 14 39 18 36 37 79 77 178 17 44 40 98 50 120 60 133 119
280 116 289 -4 11 -375 16 -452 6z"/>
<path d="M9294 7731 c-22 -13 -37 -35 -49 -68 -9 -26 -24 -66 -32 -88 -26 -68
-45 -119 -58 -155 -7 -19 -19 -53 -27 -75 -37 -101 -57 -163 -61 -195 -2 -18
2 -18 123 10 52 12 119 26 148 30 29 5 74 13 100 19 148 33 285 45 513 45 253
1 269 -2 269 -50 0 -60 -110 -139 -393 -283 -106 -54 -201 -102 -212 -108 -11
-6 -42 -22 -70 -35 -27 -14 -84 -42 -125 -62 -41 -21 -82 -42 -90 -46 -9 -4
-49 -24 -90 -45 -41 -20 -82 -40 -90 -45 -13 -6 -98 -51 -289 -151 -35 -19
-73 -43 -85 -54 -12 -11 -43 -72 -70 -135 -26 -63 -54 -128 -62 -145 -7 -16
-25 -57 -39 -90 -47 -105 -67 -149 -80 -175 -7 -14 -15 -36 -17 -50 l-3 -25
1003 -3 1002 -2 19 42 c11 24 41 111 66 193 26 83 54 167 61 188 8 21 11 43 8
49 -5 7 -187 10 -602 7 -413 -3 -596 -1 -599 7 -2 5 23 21 54 33 32 13 87 36
123 53 83 38 141 63 233 102 17 7 62 27 99 45 37 17 70 31 73 31 4 0 50 20
103 45 53 25 113 53 132 62 150 67 324 176 396 247 33 34 108 138 126 176 47
102 78 225 78 313 0 101 -54 223 -122 276 -37 30 -140 81 -161 81 -10 0 -27 5
-37 10 -50 27 -306 40 -769 40 -441 0 -468 -1 -497 -19z"/>
<path d="M6227 7723 c-8 -10 -47 -79 -85 -153 -39 -74 -91 -173 -116 -220 -25
-47 -79 -150 -120 -230 -40 -80 -84 -163 -96 -185 -13 -22 -58 -107 -100 -190
-43 -82 -88 -170 -101 -193 -13 -24 -58 -110 -100 -190 -224 -435 -329 -645
-329 -659 0 -13 16 -14 113 -8 61 3 156 11 211 16 54 5 132 9 173 9 41 0 83 5
94 11 18 9 41 53 111 209 43 96 83 176 97 193 13 16 45 17 417 17 l403 0 16
-30 c8 -16 15 -39 15 -50 0 -12 6 -36 13 -53 8 -18 21 -57 29 -87 9 -30 25
-84 36 -120 l20 -65 298 -3 c166 -1 302 2 307 7 9 9 -1 41 -43 151 -12 30 -25
69 -30 85 -11 39 -29 91 -46 133 -8 18 -14 39 -14 47 0 8 -6 29 -14 47 -7 18
-28 80 -47 138 -18 58 -38 119 -45 135 -6 17 -19 57 -29 90 -10 33 -28 92 -42
130 -22 63 -36 107 -63 200 -4 17 -14 46 -21 65 -6 19 -17 51 -24 70 -7 19
-18 51 -24 70 -7 19 -16 49 -21 65 -5 17 -14 46 -21 65 -6 19 -17 51 -24 70
-7 19 -27 82 -46 140 -18 58 -39 119 -45 135 -7 17 -23 58 -35 93 l-22 62
-317 0 c-289 0 -318 -2 -333 -17z m284 -545 c7 -13 16 -36 20 -53 4 -16 13
-46 20 -65 6 -19 17 -51 24 -70 7 -19 19 -60 28 -90 29 -106 49 -175 62 -215
23 -68 29 -125 13 -126 -49 -3 -485 -4 -495 -1 -7 2 -13 9 -13 16 0 9 56 125
129 264 10 20 35 69 55 107 20 39 57 112 81 163 24 50 49 92 54 92 6 0 16 -10
22 -22z"/>
<path d="M10840 7729 c0 -6 18 -28 41 -47 47 -40 77 -86 104 -157 27 -70 28
-322 1 -416 -60 -209 -131 -342 -235 -444 -35 -33 -51 -57 -51 -75 0 -14 -6
-46 -14 -71 -8 -25 -16 -65 -17 -90 -4 -38 -1 -44 16 -46 11 -1 51 -5 88 -8
78 -8 87 -18 64 -73 -8 -20 -23 -66 -32 -102 -10 -36 -23 -83 -30 -105 -7 -22
-20 -67 -29 -100 -18 -64 -37 -132 -57 -203 -9 -29 -9 -46 -2 -53 6 -6 89 -13
190 -16 l181 -6 16 56 c9 30 16 61 16 69 0 12 14 78 45 208 7 30 21 91 29 135
36 178 53 255 86 390 7 28 16 70 20 95 4 25 13 68 20 95 25 104 37 156 86 378
9 39 19 83 23 97 l6 25 180 3 c305 6 463 -23 508 -92 25 -37 23 -145 -3 -197
-24 -45 -95 -119 -117 -119 -7 0 -24 -6 -36 -14 -33 -21 -215 -37 -354 -31
-119 6 -122 5 -137 -17 -15 -24 -52 -301 -42 -317 3 -5 18 -11 33 -15 17 -3
36 -19 48 -38 11 -18 52 -84 90 -146 39 -62 78 -125 87 -140 9 -15 26 -44 37
-64 11 -21 33 -57 48 -80 39 -61 51 -81 59 -98 4 -8 13 -22 19 -30 7 -8 21
-31 32 -50 40 -73 58 -98 76 -109 11 -8 121 -15 305 -21 396 -13 432 -13 438
4 4 11 -107 184 -332 519 -21 32 -57 87 -79 121 -22 35 -53 79 -68 99 -31 41
-35 67 -9 67 9 0 49 12 87 26 39 14 81 29 95 34 89 29 205 109 269 183 31 36
71 96 71 105 0 5 5 13 12 20 14 14 32 64 58 157 26 92 28 275 4 337 -80 211
-194 290 -504 354 -75 15 -168 18 -762 22 -536 3 -678 1 -678 -9z"/>
<path d="M13377 7733 c-4 -3 -7 -15 -7 -25 0 -10 -5 -18 -10 -18 -6 0 -14 -8
-17 -17 -11 -30 -119 -147 -192 -208 -39 -32 -72 -64 -75 -71 -8 -20 9 -69 25
-72 37 -6 196 177 250 288 11 25 28 60 37 78 10 21 12 36 6 42 -6 6 -13 7 -17
3z"/>
<path d="M5298 6663 c-1 -5 -21 -17 -43 -28 -45 -22 -255 -158 -357 -232 -226
-163 -371 -297 -456 -423 -34 -51 -72 -148 -72 -184 0 -65 84 -156 155 -171
133 -27 172 -26 345 4 94 16 94 16 166 157 23 45 58 113 79 152 21 38 35 76
32 84 -4 11 -30 17 -98 21 -138 10 -186 47 -173 132 12 76 169 249 415 457 28
24 38 38 27 38 -9 0 -18 -3 -20 -7z"/>
<path d="M6575 5744 c-59 -14 -83 -20 -180 -44 -110 -27 -163 -39 -240 -55
-44 -9 -109 -23 -145 -31 -66 -14 -159 -30 -330 -58 -164 -27 -242 -37 -350
-46 -58 -5 -145 -14 -195 -19 -152 -18 -426 -14 -535 8 -111 22 -143 33 -187
67 -17 13 -34 24 -37 24 -3 0 -6 -18 -6 -39 0 -87 96 -162 257 -202 79 -20
113 -22 338 -22 249 0 304 5 575 49 93 15 191 35 280 56 25 6 65 14 90 19 25
5 61 13 80 18 19 5 71 17 115 26 44 9 98 23 120 31 23 8 48 14 57 14 10 0 32
6 50 14 18 7 53 19 78 25 25 6 68 18 95 27 28 8 68 19 90 25 21 5 44 14 50 19
5 4 21 10 35 12 21 2 25 8 23 32 -2 33 -29 66 -52 65 -9 0 -43 -7 -76 -15z"/>
<path d="M8515 5513 c-7 -6 -17 -40 -24 -75 -6 -35 -18 -94 -26 -133 -20 -94
-19 -131 6 -172 35 -56 87 -76 188 -71 59 3 99 10 126 23 47 24 102 99 110
153 3 20 12 69 20 107 8 39 16 93 17 120 l3 50 -59 0 -60 0 -13 -50 c-7 -27
-17 -84 -22 -125 -12 -102 -31 -146 -75 -166 -29 -15 -39 -15 -66 -4 -17 7
-35 22 -41 32 -12 22 -5 95 16 173 12 45 19 99 16 132 -1 15 -101 21 -116 6z"/>
<path d="M7280 5498 c-11 -12 -27 -34 -34 -48 -7 -14 -34 -65 -61 -115 -109
-204 -135 -257 -130 -266 4 -5 30 -9 60 -9 52 0 53 1 79 45 l27 45 88 0 c95 0
101 -3 118 -55 9 -28 12 -30 64 -30 50 0 54 2 57 25 2 13 -2 42 -8 65 -12 39
-31 128 -49 230 -5 28 -15 68 -23 90 l-13 40 -77 3 c-69 3 -79 1 -98 -20z m94
-169 c4 -34 4 -65 -1 -69 -4 -5 -26 -10 -48 -12 -37 -3 -40 -1 -43 23 -2 14 4
31 12 39 9 7 16 17 16 22 0 15 34 57 46 58 7 0 14 -27 18 -61z"/>
<path d="M7901 5506 c-7 -8 -14 -31 -17 -53 -5 -43 -29 -160 -49 -243 -17 -69
-21 -122 -11 -138 8 -14 74 -16 94 -3 7 4 17 34 22 67 15 98 35 185 44 187 5
1 17 -36 28 -83 25 -109 37 -134 68 -137 37 -4 70 31 115 122 11 22 23 42 26
45 3 3 12 16 18 29 9 17 16 20 24 12 8 -8 6 -29 -5 -78 -9 -38 -19 -89 -22
-115 -6 -50 1 -58 50 -58 46 0 62 17 68 68 4 26 13 79 20 117 34 168 48 254
42 264 -4 6 -39 11 -82 11 l-74 0 -29 -46 c-16 -25 -42 -72 -58 -104 -15 -33
-33 -59 -39 -60 -13 0 -44 112 -44 158 0 15 -5 33 -12 40 -18 18 -162 16 -177
-2z"/>
<path d="M9033 5508 c-10 -16 -30 -106 -39 -173 -4 -27 -13 -75 -20 -105 -8
-30 -14 -78 -14 -107 0 -47 3 -53 23 -59 13 -3 39 -1 58 3 26 7 35 15 37 34 2
13 9 51 17 85 8 33 15 76 15 95 0 20 3 39 7 42 10 10 53 -34 53 -54 0 -10 5
-21 10 -24 6 -4 17 -21 25 -38 8 -18 27 -54 43 -82 l28 -50 62 -3 c45 -2 63 1
66 10 2 7 11 49 20 93 10 44 22 100 28 125 10 43 27 153 31 195 2 17 -5 20
-51 23 -65 4 -79 -6 -85 -61 -7 -63 -28 -161 -36 -170 -5 -4 -33 43 -65 106
-31 63 -63 118 -72 121 -29 11 -133 6 -141 -6z"/>
<path d="M9581 5489 c-6 -19 -15 -61 -20 -94 -5 -33 -19 -118 -31 -188 -20
-110 -21 -130 -9 -138 21 -15 247 -3 313 16 40 12 70 29 97 56 61 61 79 106
79 197 0 89 -12 113 -77 153 -33 21 -52 24 -189 27 l-152 4 -11 -33z m268 -90
c53 -50 45 -120 -22 -182 -39 -36 -45 -38 -97 -35 l-55 3 3 60 c2 33 7 74 12
90 4 17 11 42 14 58 6 26 9 27 64 27 45 0 63 -5 81 -21z"/>
<path d="M6777 5503 c-3 -8 -20 -80 -53 -238 -8 -38 -22 -98 -31 -133 -11 -46
-13 -66 -5 -74 12 -12 111 -12 243 -2 l77 6 12 38 c7 21 9 43 6 49 -4 6 -38
11 -81 11 -61 0 -76 3 -83 18 -9 17 1 133 14 153 3 5 10 35 15 67 5 31 12 69
15 85 l6 27 -65 0 c-36 0 -68 -3 -70 -7z"/>
<path d="M10121 5491 c-6 -10 -13 -38 -16 -62 -3 -24 -12 -80 -20 -124 -39
-224 -39 -226 -24 -236 8 -5 38 -9 66 -9 47 0 53 3 57 23 2 12 9 49 16 82 6
33 15 89 20 125 5 36 14 81 20 100 5 19 10 54 10 77 l0 43 -60 0 c-48 0 -61
-4 -69 -19z"/>
<path d="M10479 5493 c-8 -10 -24 -36 -36 -58 -11 -22 -30 -56 -42 -75 -11
-19 -24 -42 -28 -50 -4 -8 -24 -44 -46 -79 -21 -35 -43 -74 -48 -85 -5 -12
-14 -28 -21 -37 -21 -31 -3 -49 50 -49 41 0 51 4 68 28 11 15 23 35 27 45 6
16 18 17 104 15 l97 -3 7 -32 c10 -52 25 -63 84 -63 62 0 67 7 48 69 -7 24
-13 54 -13 66 0 13 -6 45 -14 71 -26 91 -39 149 -45 199 l-6 50 -86 3 c-72 2
-88 0 -100 -15z m92 -130 c5 -15 9 -47 7 -72 -3 -40 -6 -46 -27 -49 -12 -2
-34 -1 -48 3 -22 5 -24 9 -17 38 8 37 50 107 64 107 6 0 15 -12 21 -27z"/>
<path d="M10902 5502 c-7 -5 -17 -33 -22 -63 -10 -65 -26 -151 -46 -239 -8
-36 -15 -85 -17 -110 l-2 -45 120 -8 c66 -4 140 -6 163 -5 41 3 45 5 57 42 20
59 13 66 -69 67 -118 2 -111 -1 -110 44 0 22 11 85 23 140 25 113 35 175 30
176 -40 6 -117 7 -127 1z"/>
<path d="M6030 5400 c0 -12 17 -12 45 0 17 7 15 9 -12 9 -18 1 -33 -3 -33 -9z"/>
<path d="M5855 5373 c-138 -33 -376 -76 -625 -113 -327 -49 -620 -31 -771 47
-57 30 -74 24 -35 -12 110 -102 350 -158 580 -135 194 19 261 28 306 38 25 5
81 17 125 27 44 9 105 23 135 30 173 43 276 70 325 86 31 11 42 14 88 24 15 3
27 10 27 15 0 14 -84 10 -155 -7z"/>
</g>
  </svg>
</svg>
