<?xml version="1.0" standalone="no"?>
<!DOCTYPE svg PUBLIC "-//W3C//DTD SVG 20010904//EN"
 "http://www.w3.org/TR/2001/REC-SVG-20010904/DTD/svg10.dtd">
<svg version="1.0" xmlns="http://www.w3.org/2000/svg"
 width="1800.000000pt" height="1800.000000pt" viewBox="0 0 1800.000000 1800.000000"
 preserveAspectRatio="xMidYMid meet">
<g transform="translate(0.000000,1800.000000) scale(0.100000,-0.100000)"
fill="#000000" stroke="none">
<path d="M13340 13189 c-58 -5 -136 -11 -175 -13 -38 -3 -85 -1 -103 5 -27 9
-37 8 -51 -5 -10 -9 -33 -16 -52 -16 -19 -1 -45 -7 -59 -15 -14 -8 -48 -14
-77 -15 -29 0 -68 -8 -88 -17 -30 -14 -40 -15 -56 -5 -16 10 -25 10 -47 -1
-49 -26 -97 -37 -135 -30 -26 4 -37 2 -37 -7 0 -9 -13 -11 -50 -7 -34 4 -58 1
-79 -9 -17 -8 -47 -17 -68 -19 -56 -5 -252 -50 -298 -68 -22 -9 -52 -16 -66
-17 -15 0 -38 -9 -53 -21 -14 -11 -38 -20 -54 -19 -42 3 -92 -11 -92 -26 0
-21 123 -19 140 1 9 11 33 15 85 15 45 0 84 6 101 15 16 8 48 15 72 15 24 0
52 5 62 10 11 6 57 15 102 21 144 17 301 38 373 48 432 63 1137 104 1420 82
313 -25 372 -30 405 -40 19 -6 48 -11 64 -11 16 0 54 -7 85 -16 31 -9 81 -23
111 -31 74 -21 128 -41 170 -65 19 -10 49 -25 66 -33 43 -19 140 -121 164
-170 10 -22 26 -69 35 -105 15 -60 15 -71 0 -155 -23 -123 -59 -213 -117 -299
-103 -152 -270 -332 -433 -469 -93 -78 -114 -87 -153 -61 -64 44 -197 111
-234 119 -15 3 -32 13 -37 23 -8 16 0 25 52 60 130 87 310 265 386 382 48 74
59 92 66 110 4 8 11 22 16 30 19 31 39 117 39 168 -1 118 -87 225 -230 287
-25 10 -52 25 -61 32 -8 7 -23 13 -32 13 -9 0 -31 6 -49 14 -61 26 -113 39
-178 47 -36 5 -103 15 -150 23 -47 8 -132 20 -190 26 -122 13 -745 13 -925 0
-185 -13 -435 -39 -446 -45 -5 -4 -51 -11 -102 -16 -157 -15 -261 -30 -281
-41 -11 -6 -49 -13 -85 -15 -37 -3 -83 -11 -104 -19 -20 -8 -52 -14 -71 -14
-18 0 -53 -7 -76 -15 -23 -8 -59 -15 -79 -15 -21 0 -46 -7 -57 -15 -10 -8 -38
-15 -62 -15 -26 0 -63 -10 -94 -26 -28 -14 -59 -24 -69 -21 -10 3 -27 -2 -39
-10 -14 -10 -32 -13 -51 -9 -22 4 -29 2 -29 -9 0 -8 -9 -15 -19 -15 -11 0 -22
-4 -26 -9 -3 -6 -27 -13 -53 -16 -26 -4 -58 -11 -72 -16 -14 -5 -47 -11 -74
-14 -27 -2 -72 -12 -100 -21 -70 -23 -69 -23 -86 -33 -8 -5 -69 -26 -135 -46
-66 -21 -127 -43 -136 -51 -11 -10 -18 -11 -26 -3 -16 16 -35 1 -28 -21 5 -17
3 -18 -24 -7 -26 10 -33 8 -65 -21 -20 -18 -48 -32 -61 -32 -14 0 -25 -6 -25
-13 0 -18 129 -10 148 9 7 8 32 14 56 14 23 0 47 5 54 12 6 6 30 15 54 19 51
9 240 55 283 68 46 15 226 56 310 71 27 5 61 14 75 18 14 5 61 17 105 27 44 9
94 22 110 27 17 5 75 16 130 24 146 22 286 47 365 66 61 14 199 37 290 47 41
5 111 14 155 20 354 48 740 67 1055 51 124 -6 255 -18 292 -26 37 -8 85 -14
108 -14 22 0 57 -7 77 -15 19 -8 45 -15 57 -15 11 0 53 -12 91 -26 39 -14 78
-28 89 -31 10 -3 37 -16 60 -29 22 -13 50 -28 62 -33 35 -16 102 -102 115
-149 25 -90 -27 -228 -126 -337 -98 -107 -162 -168 -215 -203 -30 -20 -80 -55
-112 -79 -62 -47 -75 -50 -157 -29 -163 42 -207 46 -484 45 -150 0 -294 -4
-321 -7 -44 -6 -51 -10 -57 -35 -7 -24 -4 -30 19 -39 15 -6 33 -12 40 -14 27
-5 26 -17 -1 -12 -15 3 -30 1 -33 -3 -9 -14 -36 -10 -56 8 -16 14 -23 15 -38
5 -15 -9 -157 -12 -563 -12 -323 0 -566 -4 -597 -10 -66 -12 -160 -56 -160
-74 0 -32 97 -36 1050 -39 999 -4 986 -4 1210 -52 36 -8 76 -16 90 -18 24 -5
53 -14 135 -45 72 -26 159 -73 205 -110 73 -59 160 -151 160 -170 0 -10 5 -23
12 -30 14 -14 37 -74 48 -130 5 -23 15 -52 22 -65 8 -15 12 -80 12 -217 0
-200 -4 -226 -55 -370 -22 -63 -80 -174 -119 -225 -70 -95 -188 -211 -242
-240 -198 -105 -313 -149 -430 -164 -67 -8 -75 -14 -59 -43 25 -48 40 -71 48
-77 9 -7 62 -76 78 -103 6 -9 22 -34 36 -55 15 -21 70 -105 124 -188 53 -82
106 -163 118 -180 58 -82 121 -178 133 -205 4 -8 20 -31 36 -51 15 -20 28 -40
28 -44 0 -4 14 -24 30 -45 17 -21 30 -41 30 -44 0 -6 81 -120 112 -157 32 -38
41 -61 26 -70 -7 -5 -20 -7 -28 -4 -53 15 -214 27 -470 35 -435 14 -602 21
-627 26 -14 3 -31 22 -48 57 -14 28 -51 93 -82 142 -30 50 -63 104 -72 120 -9
17 -29 49 -44 72 -15 24 -27 45 -27 48 0 3 -20 34 -45 71 -25 36 -45 67 -45
69 0 2 -17 30 -38 62 -22 32 -45 70 -53 85 -20 39 -122 205 -196 321 -63 97
-63 97 -104 97 l-42 0 7 148 c4 81 11 161 17 179 6 18 13 69 17 115 l7 83 215
-4 c232 -3 431 11 495 36 122 48 170 83 217 159 42 67 58 130 58 230 l0 92
-43 44 c-95 99 -155 110 -626 117 -367 6 -374 6 -381 -14 -13 -35 -30 -114
-30 -140 0 -14 -6 -51 -14 -83 -8 -31 -19 -86 -25 -122 -15 -84 -25 -135 -39
-185 -6 -22 -17 -74 -25 -115 -9 -41 -21 -100 -27 -130 -7 -30 -16 -77 -21
-105 -4 -27 -12 -68 -18 -90 -5 -22 -17 -76 -26 -120 -9 -44 -21 -98 -26 -120
-12 -48 -15 -63 -35 -185 -9 -52 -22 -118 -30 -146 -8 -28 -14 -61 -14 -73 0
-12 -6 -47 -14 -79 -19 -78 -45 -206 -70 -352 -8 -47 -20 -101 -25 -120 -6
-19 -11 -53 -11 -75 0 -22 -7 -51 -16 -63 -13 -19 -24 -22 -87 -22 -40 0 -103
5 -142 11 -38 5 -132 10 -207 10 -85 0 -140 4 -144 10 -3 6 0 27 9 47 19 47
47 163 47 194 0 13 12 53 26 89 15 35 30 84 35 109 7 43 14 70 45 188 48 180
82 291 95 308 5 6 6 14 2 17 -3 4 -71 7 -150 7 l-143 0 0 39 c0 21 4 51 10 67
5 16 14 63 20 104 23 169 21 164 98 241 39 39 93 103 119 142 55 83 143 251
143 275 0 10 7 26 15 36 8 11 15 28 15 39 0 11 7 42 16 71 44 141 43 131 59
396 3 66 -21 279 -38 320 -40 101 -65 139 -137 211 -37 36 -68 58 -89 62 -18
4 -42 18 -53 32 -20 25 -44 33 -50 15 -4 -11 -118 -1 -118 10 0 4 10 10 22 14
17 4 20 8 11 17 -9 9 -17 8 -36 -3 -27 -19 -60 -7 -50 18 5 14 3 14 -15 3 -18
-11 -24 -10 -41 5 -14 12 -29 17 -48 13 -15 -3 -36 1 -48 9 -11 7 -88 20 -175
29 -126 12 -295 15 -908 15 -483 -1 -763 -5 -780 -11 -15 -6 -42 -25 -60 -42
-30 -29 -34 -30 -43 -14 -14 24 -29 12 -29 -24 0 -16 -2 -29 -4 -29 -3 0 -22
17 -43 38 -72 71 -89 74 -436 74 l-307 -1 -55 -26 c-30 -14 -55 -29 -55 -33 0
-5 -18 -27 -40 -50 -22 -23 -40 -51 -40 -64 -1 -13 -9 -41 -20 -63 -10 -22
-17 -43 -14 -46 2 -4 -3 -12 -11 -19 -8 -7 -15 -21 -15 -31 0 -11 -9 -27 -20
-36 -11 -10 -20 -24 -20 -33 0 -9 -7 -26 -16 -38 -10 -14 -14 -32 -10 -48 4
-13 2 -24 -3 -24 -5 0 -18 -26 -30 -57 -71 -185 -77 -198 -94 -195 -10 2 -17
-3 -17 -13 0 -8 7 -15 15 -15 8 0 15 -2 15 -4 0 -12 -31 -76 -40 -81 -5 -3
-10 -15 -10 -26 0 -15 -5 -19 -19 -14 -16 5 -19 -2 -24 -47 -4 -29 -24 -100
-47 -158 -22 -57 -40 -112 -40 -121 0 -9 -9 -24 -20 -34 -11 -10 -20 -30 -20
-45 0 -14 -11 -41 -24 -59 -14 -19 -28 -47 -31 -63 -4 -16 -13 -32 -21 -35
-10 -4 -13 -15 -8 -38 4 -23 2 -34 -9 -38 -8 -3 -22 -28 -31 -55 -18 -57 -54
-118 -75 -127 -27 -11 -60 38 -67 101 -4 32 -15 71 -25 86 -11 14 -19 37 -19
50 0 12 -16 72 -35 131 -19 59 -35 119 -35 133 0 13 -7 36 -16 49 -9 13 -13
29 -9 34 3 6 -1 24 -10 40 -8 17 -15 44 -15 60 0 17 -11 47 -25 67 -18 26 -25
50 -25 83 0 25 -7 59 -15 75 -8 15 -15 37 -15 47 0 10 -4 20 -9 24 -5 3 -16
27 -24 53 -57 185 -81 252 -89 252 -6 0 -8 14 -5 35 6 37 -20 112 -47 135 -12
9 -13 16 -3 31 9 14 9 21 -1 31 -6 6 -12 20 -12 30 0 10 -7 21 -15 24 -8 4
-15 13 -15 21 0 8 -9 17 -20 20 -20 5 -28 23 -10 23 6 0 10 7 10 16 0 12 -7
14 -30 9 -26 -6 -30 -4 -30 14 0 14 -11 26 -37 37 -32 13 -96 17 -391 21 -345
6 -421 1 -487 -27 -11 -4 -29 -11 -39 -14 -15 -5 -17 -9 -8 -18 18 -18 14 -28
-9 -28 -11 0 -29 -10 -40 -22 -18 -21 -20 -22 -29 -5 -7 10 -23 17 -40 17 -22
0 -30 5 -30 18 0 10 -12 23 -27 30 -16 7 -41 20 -58 30 -27 15 -72 17 -425 20
-336 2 -406 0 -470 -13 -46 -11 -84 -25 -97 -38 -13 -12 -34 -33 -47 -45 -28
-29 -116 -182 -116 -205 0 -26 -11 -47 -26 -47 -8 0 -14 -9 -14 -20 0 -11 -9
-28 -20 -37 -11 -10 -20 -25 -20 -35 0 -9 -5 -20 -10 -23 -5 -3 -10 -15 -10
-25 0 -10 -16 -42 -35 -72 -20 -29 -47 -78 -61 -108 -13 -30 -29 -63 -34 -72
-6 -10 -10 -25 -10 -34 0 -11 -6 -15 -20 -11 -22 6 -27 -12 -8 -31 8 -8 8 -15
-2 -27 -12 -14 -15 -14 -30 0 -30 27 -42 17 -18 -16 l23 -30 -24 -18 c-15 -12
-21 -23 -16 -31 5 -8 2 -17 -7 -24 -8 -6 -23 -31 -34 -56 -10 -25 -36 -77 -56
-117 -21 -40 -38 -81 -38 -93 0 -13 -7 -20 -20 -20 -17 0 -19 -5 -14 -25 6
-23 -28 -95 -45 -95 -3 0 -18 -21 -31 -47 -14 -26 -39 -73 -57 -103 -20 -35
-30 -65 -27 -77 4 -13 -3 -33 -16 -51 -12 -17 -19 -35 -16 -41 4 -6 2 -11 -3
-11 -6 0 -11 7 -11 15 0 26 -16 16 -33 -19 -12 -26 -13 -36 -4 -39 9 -3 7 -13
-6 -35 -9 -16 -17 -35 -17 -41 0 -5 -12 -22 -26 -36 -14 -14 -42 -60 -61 -103
-19 -42 -47 -93 -62 -112 -39 -53 -51 -79 -51 -116 0 -32 -36 -104 -60 -119
-5 -3 -10 -14 -10 -24 0 -10 -9 -28 -20 -41 -11 -13 -20 -29 -20 -35 0 -7 -7
-18 -15 -25 -8 -7 -15 -20 -15 -30 0 -10 -18 -45 -40 -78 -22 -33 -40 -67 -40
-76 0 -9 -4 -16 -9 -16 -5 0 -13 -10 -17 -22 -8 -30 -33 -58 -50 -58 -8 0 -22
17 -33 38 -11 22 -31 46 -45 55 -16 11 -23 23 -20 32 5 12 -3 15 -37 15 -24 0
-62 7 -84 15 -22 8 -55 14 -73 15 -27 0 -35 6 -49 35 -9 19 -20 35 -25 35 -4
0 -8 9 -8 20 0 11 5 20 10 20 6 0 10 11 10 25 0 18 5 25 20 25 11 0 20 6 20
13 0 14 45 71 110 138 25 26 44 54 42 62 -5 23 19 33 33 14 17 -24 28 -21 22
4 -4 15 3 30 23 50 16 16 32 29 36 29 4 0 33 25 65 55 32 30 62 55 68 55 6 0
11 6 11 13 0 6 43 57 95 112 52 55 95 106 95 113 0 7 7 15 15 19 9 3 22 18 31
34 12 25 12 29 0 29 -7 0 -19 -7 -26 -15 -7 -8 -18 -15 -25 -15 -7 0 -15 -7
-19 -15 -3 -8 -10 -15 -16 -15 -24 0 -236 -169 -369 -295 -238 -224 -317 -315
-371 -424 -47 -95 -36 -165 33 -205 43 -25 163 -46 268 -46 111 0 117 -7 74
-85 -19 -33 -59 -109 -90 -170 -31 -60 -66 -126 -77 -145 -11 -19 -29 -57 -39
-85 -38 -99 -34 -96 -184 -141 -49 -14 -99 -18 -275 -18 l-215 -1 -70 34
c-127 61 -175 130 -175 252 0 87 21 153 75 235 131 201 281 357 540 562 50 40
96 76 102 82 7 6 33 24 58 41 25 17 84 59 130 93 159 116 357 246 373 246 6 0
12 4 14 8 4 12 105 82 117 82 6 0 23 12 38 26 15 14 38 30 50 35 13 5 23 13
23 18 0 16 -30 21 -51 8 -17 -10 -22 -9 -34 6 -9 13 -20 17 -34 12 -25 -8 -18
-25 10 -25 10 0 19 -4 19 -10 0 -5 -24 -10 -54 -10 -38 0 -60 -6 -79 -20 -14
-11 -30 -20 -36 -20 -5 0 -20 -10 -31 -22 -12 -13 -26 -23 -33 -24 -7 0 -23
-2 -35 -2 -15 -1 -26 -10 -29 -22 -3 -11 -13 -20 -22 -20 -9 0 -35 -18 -56
-40 -38 -38 -65 -51 -65 -30 0 17 -22 11 -27 -7 -2 -10 -36 -38 -75 -63 -38
-24 -75 -55 -82 -68 -9 -16 -16 -21 -20 -13 -10 16 -36 14 -36 -4 0 -8 5 -15
10 -15 6 0 10 -4 10 -9 0 -6 -16 -7 -35 -4 -30 5 -35 3 -35 -15 0 -14 -10 -24
-34 -32 -18 -6 -44 -22 -56 -35 -13 -14 -31 -25 -40 -25 -23 0 -40 -20 -40
-46 0 -26 -15 -40 -25 -23 -5 7 -18 0 -36 -20 -15 -17 -36 -31 -47 -31 -20 0
-45 -24 -55 -52 -4 -10 -12 -18 -18 -18 -9 0 -9 -4 0 -14 9 -11 9 -16 0 -22
-7 -4 -15 -2 -17 4 -2 7 -11 12 -19 12 -11 0 -14 -7 -9 -25 5 -20 3 -25 -14
-25 -11 0 -20 -5 -20 -11 0 -6 -15 -25 -33 -42 -19 -18 -36 -39 -39 -47 -4
-13 -7 -13 -21 -1 -15 12 -17 11 -17 -13 0 -16 -6 -26 -15 -26 -7 0 -18 -6
-22 -13 -4 -7 -20 -20 -36 -30 -29 -19 -36 -37 -13 -37 22 0 30 -19 11 -27
-10 -3 -21 0 -26 8 -6 11 -12 10 -27 -6 -14 -15 -16 -24 -8 -37 8 -13 5 -21
-11 -35 -12 -10 -40 -54 -62 -98 -51 -103 -69 -197 -53 -292 9 -51 8 -70 -1
-81 -9 -12 -7 -18 10 -29 20 -13 22 -21 16 -62 -3 -25 -15 -59 -27 -75 -32
-47 -20 -154 29 -249 20 -40 22 -51 13 -67 -10 -15 -10 -22 -1 -31 10 -10 15
-6 22 14 6 15 14 27 19 27 4 0 22 -18 38 -40 75 -97 160 -139 394 -193 177
-42 592 -28 905 29 44 8 94 14 110 14 17 0 59 6 95 14 36 9 99 20 140 25 89
12 371 68 465 93 37 10 65 16 235 48 36 7 70 16 75 20 6 5 33 11 60 15 28 4
55 11 61 16 6 5 31 13 55 18 24 6 82 19 129 30 74 17 87 18 101 5 23 -20 39
-18 70 12 22 21 42 28 95 33 45 5 71 13 79 24 7 9 23 17 36 17 31 0 157 36
174 50 15 12 65 -3 65 -20 0 -5 5 -10 10 -10 6 0 10 14 10 30 0 28 2 30 40 30
29 0 43 5 47 17 4 9 2 18 -4 20 -18 6 -2 43 18 43 11 0 19 6 19 14 0 7 7 19
15 26 8 7 15 23 15 36 0 13 7 27 16 32 14 8 14 10 0 21 -11 10 -13 18 -6 31 8
15 5 19 -15 24 -18 5 -25 13 -25 31 0 18 -5 25 -19 25 -23 0 -45 25 -38 44 8
20 -2 27 -22 16 -10 -5 -23 -5 -31 0 -8 5 -21 3 -32 -3 -16 -10 -22 -9 -32 6
-17 22 -20 21 -73 -4 -26 -13 -67 -22 -100 -23 -39 -1 -59 -7 -68 -19 -10 -14
-18 -15 -38 -8 -21 8 -39 5 -89 -18 -66 -30 -199 -65 -283 -76 -27 -4 -87 -18
-132 -31 -73 -22 -199 -48 -294 -61 -28 -4 -42 1 -64 19 -24 21 -26 27 -16 46
8 15 19 21 34 19 12 -2 16 -2 10 0 -22 7 -14 34 17 61 17 15 30 34 30 44 0 9
9 22 20 28 22 12 27 55 8 64 -9 4 -6 10 9 22 13 9 23 27 23 41 0 13 7 26 15
29 9 4 15 19 15 40 0 18 6 37 13 41 6 4 26 35 42 67 50 98 37 95 360 97 154 1
361 -1 460 -6 161 -7 181 -10 194 -27 12 -18 14 -18 31 -3 21 19 40 12 40 -15
0 -10 5 -20 11 -22 14 -5 86 -224 100 -308 6 -36 19 -74 29 -85 10 -11 22 -32
25 -48 4 -15 26 -43 49 -63 84 -72 60 -69 481 -68 209 0 397 4 417 8 41 8 118
67 157 123 17 23 31 33 45 31 27 -4 34 -44 9 -51 -10 -3 4 -2 30 1 42 4 49 2
53 -15 3 -11 24 -31 47 -43 36 -21 59 -24 226 -31 102 -4 272 -6 376 -4 203 3
232 9 300 61 18 13 37 24 43 24 7 0 12 9 12 21 0 12 4 18 11 13 15 -9 29 14
29 48 0 15 5 30 10 33 6 3 10 14 10 23 1 31 35 85 58 93 16 6 22 5 22 -5 0 -8
-12 -17 -26 -20 -21 -6 -25 -11 -21 -28 3 -12 1 -30 -5 -41 -8 -16 -7 -23 5
-32 14 -10 14 -12 -1 -21 -14 -9 -6 -20 50 -76 53 -53 74 -68 114 -77 58 -13
2796 -23 2881 -10 59 9 153 65 153 92 0 21 9 22 38 2 12 -9 28 -15 35 -13 7 2
28 -14 46 -34 48 -55 89 -65 333 -78 196 -10 221 -10 252 5 39 19 129 113 134
141 2 11 8 23 13 29 5 5 9 23 9 41 0 19 6 34 15 38 13 5 14 10 5 27 -9 15 -8
31 4 66 9 26 16 59 16 75 0 16 7 59 15 96 9 37 20 90 26 117 5 28 15 69 21 92
6 23 8 57 6 74 -3 18 1 44 8 58 8 14 14 40 14 56 0 17 6 40 14 51 8 11 15 38
15 60 0 84 2 95 16 101 8 3 15 14 15 24 0 11 9 36 20 56 12 22 17 46 14 60 -4
14 -2 23 5 23 6 0 11 -6 11 -14 0 -7 7 -19 15 -26 9 -7 23 -28 32 -47 9 -19
23 -37 32 -41 28 -10 78 -68 105 -120 14 -28 37 -67 50 -87 14 -20 33 -54 43
-76 9 -21 20 -39 25 -39 11 0 88 -119 88 -136 0 -8 -5 -14 -12 -14 -6 0 -4 -8
6 -19 10 -11 23 -18 30 -15 7 3 21 -5 31 -16 18 -20 18 -21 0 -34 -18 -13 -18
-14 2 -20 26 -8 76 -83 69 -103 -4 -9 1 -17 14 -20 13 -3 20 -14 20 -29 0 -15
6 -24 15 -24 8 0 15 -6 15 -14 0 -18 36 -81 64 -112 12 -12 34 -49 51 -81 42
-84 76 -133 91 -133 7 0 31 -18 54 -40 23 -22 50 -40 61 -40 10 0 19 -7 19
-15 0 -10 10 -15 33 -14 l32 1 -30 13 -30 13 29 7 c19 5 31 3 36 -5 6 -10 59
-16 202 -21 106 -4 208 -11 226 -15 21 -4 43 -2 58 6 19 11 34 11 76 1 37 -9
115 -12 252 -9 193 3 199 4 214 25 8 13 20 23 26 23 7 0 23 11 36 25 30 32 30
106 0 147 -11 15 -20 37 -20 48 0 24 -57 100 -76 100 -6 0 -15 15 -18 34 -6
33 -56 96 -76 96 -13 0 -13 33 1 47 7 7 4 12 -13 17 -15 4 -47 43 -90 111 -38
57 -68 109 -68 114 0 6 -9 15 -20 21 -11 6 -20 17 -20 25 0 8 -4 15 -10 15 -5
0 -10 9 -10 19 0 11 -9 23 -21 26 -17 6 -20 13 -15 36 3 17 1 29 -5 29 -5 0
-26 16 -46 36 -31 31 -34 39 -25 55 17 27 15 32 -11 26 -19 -5 -26 1 -47 46
-18 37 -32 54 -50 58 -22 6 -23 7 -7 14 15 6 17 15 12 46 -6 34 -4 39 12 39
32 0 147 50 165 71 10 12 19 15 23 9 10 -16 45 -11 52 8 9 22 34 41 56 42 10
0 20 7 23 15 4 8 12 15 20 15 8 0 14 4 14 10 0 5 16 12 35 16 43 8 53 21 29
39 -23 17 -11 20 15 3 10 -6 27 -8 37 -4 18 7 18 9 -4 23 l-23 16 31 18 c16
10 30 26 30 34 0 18 17 20 22 3 2 -6 10 -8 17 -4 9 6 8 11 -5 20 -15 12 -14
15 12 39 21 20 31 23 41 15 10 -8 13 -3 13 24 0 24 8 42 25 58 14 13 25 32 25
41 0 10 9 23 20 29 15 8 19 17 14 35 -4 17 0 26 16 35 14 8 19 17 15 30 -4 12
2 30 14 47 12 15 26 53 32 83 6 30 15 75 20 100 6 25 9 122 7 215 -1 94 2 177
6 184 6 9 3 18 -7 26 -20 14 -23 45 -4 45 7 0 21 -10 31 -21 13 -16 21 -18 29
-10 18 18 28 13 15 -9 -7 -10 -10 -21 -8 -22 53 -38 91 -58 111 -58 37 0 169
88 169 113 0 11 9 21 21 24 16 5 19 11 14 31 -5 21 -3 24 15 19 17 -4 20 -2
15 14 -5 13 5 32 29 61 20 23 36 51 36 62 0 11 10 30 23 44 18 19 22 36 24 88
0 36 5 70 11 77 14 18 23 77 12 77 -6 0 -10 9 -10 20 0 11 6 19 13 18 15 -4
22 48 9 65 -5 7 -13 30 -17 52 -4 22 -10 33 -13 25 -3 -8 -11 -21 -19 -28 -7
-7 -13 -32 -13 -54 0 -22 -6 -54 -14 -71 -7 -18 -24 -66 -37 -107 -25 -80
-106 -248 -142 -292 -12 -15 -44 -59 -72 -98 -27 -38 -55 -70 -62 -70 -15 0
-38 52 -48 109 -6 37 -4 44 22 69 16 15 46 49 68 77 22 27 50 58 62 68 12 10
45 57 73 105 70 118 70 119 70 143 0 11 6 30 12 42 7 12 17 51 23 87 10 63 11
65 38 62 32 -3 34 9 11 63 -17 42 -8 88 23 110 16 12 16 15 -2 54 -22 50 -48
52 -53 4 -2 -17 -10 -37 -18 -43 -8 -7 -14 -20 -14 -30 0 -10 -7 -23 -15 -30
-8 -7 -15 -19 -15 -27 0 -25 -118 -228 -172 -298 -5 -5 -47 -63 -95 -127 -89
-121 -112 -137 -133 -97 -7 11 -21 32 -33 46 -38 43 -39 60 -6 85 85 64 226
203 304 299 35 43 112 163 119 187 4 12 12 22 17 22 5 0 9 11 9 24 0 14 6 31
14 38 7 8 17 25 21 38 4 13 21 37 36 53 16 16 29 35 29 43 0 8 5 14 10 14 6 0
10 14 10 32 0 17 7 39 15 48 14 16 27 94 26 152 -1 15 3 29 9 33 28 17 4 131
-45 219 -16 28 -24 54 -20 66 6 19 -55 87 -151 166 -42 35 -187 114 -209 114
-7 0 -18 7 -25 15 -7 8 -27 15 -44 15 -18 0 -38 6 -44 12 -7 7 -37 13 -67 13
-37 1 -61 7 -74 19 -14 13 -33 17 -72 15 -30 -1 -76 3 -104 10 -27 7 -65 10
-85 6 -19 -3 -52 1 -75 9 -27 10 -47 11 -64 5 -16 -6 -28 -6 -35 1 -12 12
-654 11 -816 -1z m733 -1434 c26 -19 18 -49 -14 -53 -23 -3 -27 1 -31 28 -7
43 10 53 45 25z m77 -70 c-13 -16 -40 -21 -40 -7 0 8 42 30 49 25 2 -1 -2 -9
-9 -18z m-4980 -15 c0 -8 -14 -44 -32 -80 -34 -70 -33 -68 -103 -240 -26 -63
-53 -127 -61 -142 -8 -14 -14 -31 -14 -37 0 -6 -13 -39 -29 -74 -16 -34 -36
-82 -46 -107 -9 -25 -23 -60 -31 -78 -8 -18 -14 -37 -14 -42 0 -6 -14 -40 -31
-77 -50 -112 -59 -133 -59 -144 0 -6 -13 -37 -30 -71 -16 -33 -30 -66 -30 -73
0 -7 -6 -26 -14 -42 -8 -15 -29 -64 -46 -108 -31 -76 -38 -94 -73 -175 -8 -19
-23 -55 -32 -80 -10 -25 -24 -60 -31 -77 -8 -18 -20 -48 -28 -65 -7 -18 -21
-53 -31 -78 -9 -25 -23 -57 -31 -72 -8 -14 -14 -35 -14 -45 0 -10 -4 -23 -9
-29 -5 -5 -26 -49 -46 -99 -20 -49 -43 -103 -50 -120 -7 -16 -28 -66 -45 -110
-18 -44 -39 -96 -48 -115 -21 -48 -35 -82 -72 -175 -18 -44 -38 -93 -45 -110
-7 -16 -21 -50 -30 -75 -10 -25 -23 -58 -31 -75 -7 -16 -19 -45 -26 -64 -7
-18 -22 -54 -33 -78 l-20 -45 -410 1 -410 1 -20 26 c-19 24 -65 139 -85 209
-5 17 -18 55 -30 85 -12 30 -25 69 -27 85 -3 17 -9 35 -14 40 -4 6 -20 49 -35
95 -15 47 -31 89 -35 94 -5 6 -9 22 -9 36 0 14 -7 35 -15 46 -8 10 -15 29 -15
41 0 13 -13 51 -28 85 -16 35 -37 90 -46 123 -19 63 -39 119 -62 173 -8 18
-14 39 -14 47 0 7 -6 26 -14 42 -18 36 -36 88 -46 133 -4 19 -18 60 -30 90
-12 30 -26 71 -30 90 -13 57 -44 139 -76 203 -8 16 -14 41 -14 56 0 15 -7 36
-15 47 -8 10 -15 30 -15 42 0 13 -6 36 -14 50 -15 30 -20 44 -77 217 -22 66
-43 129 -48 140 -11 27 -33 93 -42 130 -4 17 -17 55 -29 85 -34 86 -81 221
-89 260 -8 33 -25 77 -57 146 -7 18 -15 41 -16 53 l-3 22 453 2 c273 0 455 -3
460 -9 5 -5 14 -29 21 -54 8 -25 20 -62 27 -83 8 -20 14 -46 14 -57 0 -11 6
-34 14 -52 7 -18 21 -60 31 -93 9 -33 22 -69 28 -80 6 -11 14 -36 18 -55 4
-19 12 -50 18 -67 6 -18 16 -48 22 -65 6 -18 14 -49 19 -68 4 -19 12 -46 17
-60 6 -14 18 -52 28 -85 9 -33 23 -76 30 -95 14 -40 32 -105 46 -170 5 -24 14
-49 19 -54 6 -6 10 -21 10 -34 0 -13 5 -33 12 -45 6 -12 15 -35 19 -52 4 -16
13 -46 20 -65 6 -19 17 -51 24 -70 12 -34 28 -89 45 -160 4 -19 13 -48 19 -65
46 -128 92 -281 97 -322 9 -72 10 -76 34 -63 11 6 22 23 26 38 8 38 34 121 50
157 6 17 20 50 29 75 37 97 49 127 71 175 40 90 55 129 76 195 21 69 46 125
64 150 6 8 14 24 17 35 3 11 15 45 27 75 12 30 25 66 30 80 4 14 19 51 34 82
14 31 26 61 26 67 0 5 6 22 14 38 8 15 29 64 46 108 17 44 38 93 46 108 8 16
14 33 14 39 0 6 14 40 30 75 17 34 30 69 30 77 0 8 6 27 14 43 8 15 21 46 29
68 29 77 79 200 93 227 8 14 14 33 14 42 0 9 9 33 19 54 l19 37 371 0 c319 0
371 -2 371 -15z m1710 10 c52 -6 138 -12 190 -15 108 -6 222 -28 295 -57 108
-43 195 -91 237 -131 49 -48 118 -148 118 -172 0 -9 6 -28 14 -43 19 -38 26
-167 16 -297 -11 -150 -31 -218 -107 -382 -20 -43 -116 -173 -165 -225 -36
-38 -154 -138 -163 -138 -3 0 -32 -20 -66 -45 -34 -25 -66 -45 -71 -45 -6 0
-27 -12 -47 -27 -55 -42 -100 -66 -289 -153 -159 -74 -199 -93 -227 -105 -16
-7 -61 -27 -100 -45 -38 -17 -83 -37 -100 -45 -16 -7 -59 -26 -95 -43 -36 -16
-101 -44 -145 -62 -102 -41 -125 -51 -207 -89 -37 -17 -70 -31 -72 -31 -3 0
-42 -17 -88 -39 -46 -21 -94 -42 -108 -45 -14 -4 -34 -11 -45 -16 -11 -5 -33
-11 -48 -15 -20 -4 -27 -11 -25 -23 4 -21 -20 -21 468 1 445 19 1415 26 1432
9 7 -7 4 -20 -11 -45 -11 -19 -21 -42 -21 -50 0 -9 -6 -31 -14 -49 -7 -18 -21
-60 -31 -93 -9 -33 -30 -101 -46 -150 -16 -50 -29 -100 -29 -112 0 -12 -6 -34
-14 -50 -19 -38 -46 -130 -46 -158 0 -13 -6 -25 -12 -27 -7 -2 -472 0 -1033 3
-1059 8 -1890 5 -1949 -6 -29 -6 -35 -4 -41 15 -4 12 -1 30 8 43 8 12 25 47
37 77 12 30 36 84 52 120 34 74 49 108 71 165 8 22 22 60 32 85 9 25 29 72 45
105 15 33 38 85 50 115 12 30 26 59 31 64 5 6 9 18 9 28 0 15 11 45 42 114 13
28 73 70 168 118 41 20 125 64 185 96 61 33 184 97 275 143 91 46 188 97 215
113 28 17 73 40 100 51 28 12 83 40 124 62 41 23 76 41 78 41 7 0 184 89 358
180 83 43 200 104 260 135 114 58 125 64 222 129 61 41 63 43 142 121 43 41
51 55 51 86 0 24 -7 42 -21 55 -20 18 -41 19 -368 18 -341 0 -518 -12 -661
-45 -25 -6 -70 -14 -100 -19 -81 -11 -170 -31 -215 -46 -23 -8 -54 -14 -70
-14 -17 0 -50 -6 -75 -14 -25 -8 -78 -24 -118 -36 -40 -12 -75 -26 -78 -31 -7
-12 -64 -12 -64 0 0 5 3 11 8 13 10 4 39 66 51 108 11 40 28 91 46 135 23 55
37 100 43 130 2 17 11 39 18 50 8 11 14 29 14 40 0 12 4 25 9 31 11 11 39 85
51 134 4 19 13 50 19 68 6 17 16 47 22 65 6 17 13 43 16 57 9 49 35 86 72 102
32 14 111 16 716 17 374 0 723 -4 775 -9z m-5033 -55 c17 -46 26 -76 49 -160
9 -33 20 -64 25 -69 5 -6 9 -20 9 -33 0 -12 6 -37 14 -55 33 -78 68 -174 91
-253 24 -82 75 -242 90 -285 32 -92 39 -114 75 -235 15 -52 32 -99 46 -128 8
-16 14 -39 14 -51 0 -12 7 -31 15 -42 8 -10 15 -30 15 -44 0 -14 7 -36 15 -50
8 -14 14 -37 15 -51 0 -14 7 -34 15 -45 8 -10 15 -30 15 -44 0 -14 6 -34 14
-45 7 -11 16 -33 19 -50 5 -28 27 -97 46 -140 5 -11 16 -49 26 -85 9 -36 22
-78 29 -95 20 -48 37 -97 47 -138 5 -21 13 -45 18 -55 10 -21 30 -77 41 -117
8 -29 16 -54 40 -125 6 -19 16 -52 21 -73 5 -21 13 -45 18 -55 19 -38 69 -179
74 -207 6 -41 37 -125 73 -198 8 -16 14 -33 14 -38 0 -10 -892 -12 -917 -2 -7
3 -13 15 -13 28 0 12 -7 47 -16 76 -8 30 -22 79 -30 109 -8 30 -20 69 -25 85
-35 103 -73 236 -77 272 -2 23 -9 47 -16 52 -9 8 -925 16 -1204 11 -7 0 -20
-17 -29 -37 -9 -21 -35 -78 -59 -128 -23 -49 -55 -117 -69 -150 -15 -33 -36
-80 -47 -105 -11 -25 -26 -58 -33 -75 -37 -90 -67 -145 -78 -146 -7 0 -23 -2
-37 -4 -14 -2 -124 -8 -245 -14 -121 -6 -269 -15 -330 -20 -270 -24 -284 -24
-292 -5 -3 10 0 22 8 28 8 6 22 27 31 46 10 19 38 71 63 115 25 44 48 87 51
95 11 28 37 85 45 100 5 8 20 40 35 70 39 81 126 251 153 300 5 8 29 58 54
110 73 152 117 240 154 310 20 36 100 191 178 345 78 154 159 309 179 345 19
36 38 72 42 80 15 36 201 404 245 485 27 50 53 99 58 110 32 70 42 92 50 105
5 8 12 22 15 30 3 8 10 22 14 30 16 28 34 63 69 134 18 39 38 78 43 86 5 8 19
35 32 60 44 88 -8 81 526 78 l474 -3 15 -40z m8631 -107 c10 -10 17 -10 31 -1
21 13 31 8 31 -18 0 -35 -67 -29 -81 9 -9 24 0 29 19 10z m82 -100 c8 -18 25
-43 39 -55 22 -19 24 -24 11 -33 -22 -14 -28 -12 -36 13 -3 12 -13 29 -20 37
-7 8 -22 25 -33 37 -21 23 -18 33 9 33 10 0 23 -14 30 -32z m95 -118 c-9 -27
21 -39 39 -15 8 12 15 14 20 7 7 -12 -35 -62 -53 -62 -6 0 -11 -11 -11 -25 0
-31 -14 -32 -35 -3 -14 21 -14 24 0 34 19 14 19 34 0 34 -8 0 -15 -4 -15 -10
0 -5 -4 -10 -10 -10 -18 0 -11 20 16 45 33 31 58 33 49 5z m51 -126 c-8 -16
-17 -37 -20 -46 -3 -10 -10 -18 -16 -18 -15 0 -12 58 3 67 8 4 17 17 21 27 4
13 10 16 17 9 7 -7 5 -19 -5 -39z m-1739 -326 c9 -8 13 -7 13 2 0 17 182 9
204 -9 13 -11 19 -11 31 -1 9 8 27 10 47 6 18 -4 47 -9 65 -12 17 -4 39 -15
49 -25 9 -10 23 -19 31 -19 7 0 22 -15 34 -32 16 -27 19 -43 13 -88 -9 -81
-45 -146 -85 -154 -26 -5 -29 -8 -19 -21 17 -21 4 -35 -35 -35 -19 0 -37 -5
-40 -10 -16 -26 -76 -37 -205 -39 -477 -6 -457 -5 -477 -23 -33 -31 -53 -23
-53 20 0 47 43 250 59 281 7 13 11 37 9 53 -4 23 1 33 19 45 18 12 21 18 12
30 -7 7 -9 17 -5 20 19 19 312 29 333 11z m-2547 -12 c58 0 111 -5 118 -9 24
-16 12 -45 -38 -91 -48 -45 -70 -56 -70 -36 0 6 -5 10 -11 10 -7 0 -9 -11 -6
-26 4 -24 3 -25 -29 -20 -22 5 -35 2 -41 -6 -7 -12 -76 -52 -140 -83 -12 -5
-24 -18 -27 -27 -5 -19 -31 -24 -41 -8 -11 18 -34 10 -37 -12 -4 -27 -58 -52
-65 -30 -5 14 -33 17 -33 3 0 -5 6 -12 13 -15 17 -7 -29 -46 -55 -46 -11 0
-31 -9 -45 -20 -14 -11 -36 -20 -49 -20 -12 0 -26 -5 -30 -11 -3 -6 -32 -23
-63 -38 -79 -38 -131 -71 -131 -83 0 -5 -9 -7 -19 -3 -11 3 -22 1 -26 -5 -8
-13 -45 -13 -45 0 0 6 -5 10 -11 10 -6 0 -8 -7 -5 -16 9 -24 -11 -42 -53 -50
-20 -4 -42 -15 -49 -26 -7 -10 -19 -18 -26 -18 -29 0 -275 -133 -281 -151 -7
-20 -45 -27 -45 -8 0 6 -10 9 -22 7 -17 -2 -22 -9 -21 -26 2 -16 -2 -22 -17
-22 -12 0 -23 -6 -26 -14 -7 -18 -84 -60 -84 -46 0 15 -38 12 -47 -4 -8 -14
-98 -68 -145 -87 -14 -6 -29 -17 -32 -25 -3 -8 -14 -14 -24 -14 -11 0 -25 -7
-32 -15 -7 -8 -21 -15 -31 -15 -10 0 -20 -8 -23 -18 -9 -27 -53 -49 -68 -34
-8 8 -6 26 10 70 12 32 22 66 22 74 0 9 7 21 15 28 8 7 15 23 15 35 0 12 7 28
15 35 8 7 15 23 15 37 0 13 7 31 15 39 8 9 15 31 15 50 0 19 5 34 10 34 6 0
10 5 10 10 0 6 16 46 36 88 20 42 39 97 42 122 3 31 14 56 35 79 34 40 57 90
57 125 0 14 8 29 17 35 11 6 18 23 19 45 0 20 11 50 22 66 12 16 22 36 22 45
0 8 4 15 10 15 5 0 12 11 16 25 7 30 30 33 37 5 3 -12 14 -20 26 -20 12 0 21
-6 21 -15 0 -9 16 -25 35 -36 19 -12 35 -25 35 -30 0 -14 26 -10 40 6 7 9 30
15 54 15 22 0 73 10 111 21 39 11 99 24 135 29 36 6 79 15 95 20 33 10 183 37
290 52 39 5 84 13 101 19 17 5 86 9 155 10 68 0 147 7 174 14 28 7 57 10 65 8
8 -3 62 -6 120 -7z m1115 -616 c18 -20 18 -21 -2 -26 -12 -3 -23 -15 -26 -26
-4 -14 -12 -19 -29 -16 -31 4 -36 35 -6 40 17 2 22 8 20 26 -4 28 18 29 43 2z
m-90 -82 c25 -11 37 -58 15 -58 -5 0 -10 5 -10 10 0 14 -27 13 -36 -2 -4 -6 1
-17 10 -24 15 -11 15 -13 2 -21 -25 -14 -47 -92 -62 -218 -11 -92 -12 -125 -3
-142 6 -12 9 -29 6 -38 -4 -9 1 -22 13 -32 35 -31 25 -48 -42 -69 -52 -15 -86
-18 -188 -16 -69 2 -145 3 -170 3 -25 -1 -164 -4 -310 -7 -146 -3 -280 -5
-299 -5 -31 0 -71 24 -71 43 0 5 10 13 23 19 12 5 33 16 47 24 14 8 33 15 42
15 9 0 20 9 23 21 5 16 10 18 21 8 11 -9 20 -8 39 5 14 9 25 21 25 27 0 7 11
9 25 7 19 -4 25 -1 25 12 0 23 24 32 56 20 21 -8 32 -5 62 17 20 16 41 34 45
40 4 7 16 13 26 13 10 0 38 11 62 25 69 38 110 55 134 55 18 0 22 4 18 20 -4
14 0 20 11 20 9 0 16 -4 16 -10 0 -5 7 -10 15 -10 8 0 15 5 15 10 0 6 20 20
45 32 25 12 45 26 45 30 0 4 15 14 33 22 17 7 43 23 56 35 13 11 28 18 32 15
5 -3 23 8 40 25 17 17 36 31 44 31 7 0 15 7 19 15 3 8 12 15 19 15 8 0 20 7
27 15 15 18 21 18 55 3z m-2925 -500 c-1 -15 -24 -48 -34 -48 -8 0 -8 45 1 53
11 12 33 8 33 -5z m-64 -123 c-20 -50 -36 -59 -36 -18 0 25 38 79 48 68 3 -2
-3 -25 -12 -50z m2967 14 c-4 -15 -12 -19 -32 -17 -35 4 -33 21 4 29 17 4 31
7 32 8 0 0 -1 -8 -4 -20z m100 -23 c4 -10 0 -12 -14 -9 -22 6 -26 23 -5 23 8
0 16 -6 19 -14z m-4813 -92 c0 -8 -4 -14 -10 -14 -5 0 -10 9 -10 21 0 11 5 17
10 14 6 -3 10 -13 10 -21z m1680 -38 c0 -8 -4 -18 -10 -21 -5 -3 -10 3 -10 14
0 12 5 21 10 21 6 0 10 -6 10 -14z m-39 -59 c-13 -13 -26 -3 -16 12 3 6 11 8
17 5 6 -4 6 -10 -1 -17z m-5331 -42 c0 -8 -4 -15 -10 -15 -5 0 -10 7 -10 15 0
8 5 15 10 15 6 0 10 -7 10 -15z m5252 -220 c-2 -11 -9 -23 -15 -27 -18 -11
-30 7 -22 32 9 27 41 23 37 -5z m-62 -80 c0 -8 -4 -15 -10 -15 -5 0 -10 7 -10
15 0 8 5 15 10 15 6 0 10 -7 10 -15z m-1304 -157 c-10 -6 -20 -7 -24 -3 -9 8
20 25 31 18 5 -3 2 -10 -7 -15z m34 -59 c0 -5 -7 -9 -15 -9 -15 0 -20 12 -9
23 8 8 24 -1 24 -14z m-1364 -88 c3 -14 10 -36 15 -49 5 -13 9 -36 9 -52 0
-25 -5 -29 -42 -38 -24 -6 -68 -18 -98 -27 -30 -9 -75 -20 -100 -26 -24 -5
-49 -14 -54 -19 -6 -6 -20 -10 -33 -10 -12 0 -40 -6 -60 -14 -21 -7 -65 -21
-98 -30 -33 -10 -76 -22 -95 -28 -19 -6 -51 -15 -70 -19 -19 -4 -48 -12 -65
-17 -16 -6 -57 -18 -90 -26 -33 -8 -80 -20 -105 -26 -25 -7 -67 -16 -95 -20
-27 -4 -99 -20 -160 -35 -60 -15 -135 -33 -165 -41 -30 -7 -98 -21 -150 -30
-52 -9 -123 -22 -157 -30 -34 -8 -77 -14 -95 -14 -18 0 -49 -5 -68 -11 -19 -6
-62 -14 -95 -19 -61 -8 -153 -21 -292 -41 -117 -18 -540 -23 -653 -9 -52 7
-122 16 -155 20 -93 11 -225 52 -286 89 -19 12 -41 24 -49 27 -29 13 -100 100
-126 154 -31 64 -40 185 -15 185 8 0 19 -13 24 -29 6 -17 23 -44 39 -61 30
-34 145 -95 177 -95 11 0 32 -5 48 -11 15 -6 62 -15 103 -20 41 -5 107 -13
145 -19 145 -20 573 -5 855 31 47 6 103 12 125 15 77 8 260 35 305 44 25 6 65
12 90 15 25 3 77 12 115 20 39 8 115 21 170 30 55 9 120 21 145 27 25 6 70 15
100 19 30 5 93 18 140 29 47 12 108 25 137 31 29 5 64 14 78 19 15 6 38 10 52
10 14 0 46 6 72 14 52 16 115 33 180 47 48 10 95 24 151 45 19 7 56 16 82 19
26 3 50 10 53 15 10 17 55 -13 61 -39z m-2342 -56 c5 -24 12 -35 25 -35 28 0
64 -45 56 -69 -7 -24 -22 -22 215 -26 187 -4 180 -3 180 -13 0 -15 -49 -32
-77 -26 -16 3 -72 -2 -125 -10 -123 -20 -162 -20 -178 -1 -19 23 -54 15 -58
-12 -4 -24 -30 -31 -49 -12 -7 7 -22 5 -51 -6 -22 -9 -53 -15 -69 -13 -24 3
-28 7 -25 31 2 15 -1 27 -7 27 -22 0 -10 18 18 30 19 7 35 25 44 48 18 43 73
122 86 122 5 0 12 -16 15 -35z m1084 -52 c2 -8 -6 -13 -22 -13 -25 0 -33 10
-19 24 10 10 36 3 41 -11z m-468 -68 c0 -12 -12 -15 -52 -14 l-53 1 30 13 c40
19 75 19 75 0z m-822 -80 c-12 -13 -26 -21 -31 -18 -5 3 1 16 14 29 12 13 26
21 31 18 5 -3 -2 -16 -14 -29z m292 -11 c0 -9 -7 -14 -17 -12 -25 5 -28 28 -4
28 12 0 21 -6 21 -16z"/>
<path d="M5252 10898 c-7 -7 -12 -18 -12 -25 0 -7 -7 -29 -16 -50 -9 -21 -22
-51 -29 -68 -15 -34 -192 -402 -205 -425 -5 -8 -35 -67 -67 -130 -32 -63 -68
-129 -80 -148 -13 -18 -23 -39 -23 -47 0 -8 -5 -17 -10 -20 -15 -9 -50 -82
-43 -89 11 -10 801 -7 808 4 3 5 -3 31 -13 57 -32 80 -44 116 -52 159 -5 22
-13 51 -18 65 -6 13 -18 53 -27 89 -10 36 -23 83 -30 105 -7 22 -21 69 -30
105 -10 36 -28 97 -42 135 -26 73 -34 102 -53 200 -18 88 -32 109 -58 83z m3
-373 c15 -16 25 -37 25 -54 0 -16 7 -31 15 -35 8 -3 15 -17 15 -31 0 -14 7
-42 15 -62 8 -19 15 -58 15 -85 0 -40 3 -49 15 -44 10 4 16 -3 20 -22 3 -15
10 -48 16 -75 12 -54 7 -65 -45 -95 -28 -17 -47 -18 -196 -13 -152 6 -165 8
-168 25 -2 10 3 23 12 28 18 10 22 38 6 38 -18 0 -10 18 10 23 11 3 20 12 20
21 0 20 68 158 83 167 5 4 7 15 3 24 -9 23 12 47 35 40 11 -4 19 -2 19 4 0 6
-4 11 -10 11 -16 0 -12 60 5 66 9 4 25 26 36 50 11 24 21 44 24 44 2 0 16 -11
30 -25z"/>
<path d="M8862 10598 c5 -15 28 -18 29 -3 0 6 -7 12 -17 13 -10 3 -15 -1 -12
-10z"/>
<path d="M8912 9948 c-19 -19 -14 -28 14 -28 18 0 25 5 22 17 -4 21 -21 26
-36 11z"/>
<path d="M11600 12850 c0 -5 18 -10 40 -10 22 0 40 5 40 10 0 6 -18 10 -40 10
-22 0 -40 -4 -40 -10z"/>
<path d="M12095 12579 c-38 -5 -129 -13 -201 -17 -71 -5 -135 -11 -141 -15
-10 -7 -183 -31 -341 -47 -45 -5 -86 -11 -91 -14 -4 -3 -51 -10 -102 -16 -52
-6 -105 -15 -119 -20 -14 -6 -52 -14 -85 -20 -33 -5 -89 -17 -125 -26 -36 -9
-92 -20 -125 -26 -33 -5 -73 -16 -88 -24 -16 -8 -47 -14 -70 -14 -23 0 -51 -7
-61 -15 -11 -8 -35 -15 -53 -15 -21 0 -36 -6 -40 -16 -3 -8 -11 -13 -18 -10
-7 2 -21 -2 -32 -9 -17 -13 -16 -14 14 -15 18 0 53 6 79 12 39 11 49 10 75 -4
22 -13 30 -14 36 -4 5 6 27 18 50 24 34 10 46 10 62 0 17 -10 23 -9 40 6 16
15 24 16 35 7 10 -8 21 -9 42 -1 15 6 45 8 65 5 28 -5 38 -3 42 9 4 10 19 16
39 16 18 0 53 5 78 11 52 12 176 31 205 31 11 0 38 4 60 9 22 5 72 11 110 14
39 2 138 13 220 24 153 20 314 35 555 51 210 15 690 0 839 -26 96 -17 171 -47
171 -70 0 -12 6 -15 24 -10 14 3 27 2 30 -3 10 -15 -4 -39 -26 -44 -18 -5 -20
-11 -15 -42 6 -34 4 -37 -14 -32 -24 6 -38 -18 -20 -36 19 -19 12 -26 -25 -24
-29 2 -37 -2 -40 -16 -1 -10 -22 -38 -47 -63 -24 -24 -50 -57 -56 -73 -7 -16
-21 -31 -32 -34 -19 -5 -27 -37 -9 -37 6 0 10 -7 10 -15 0 -8 -4 -15 -10 -15
-5 0 -10 7 -10 15 0 8 -7 15 -15 15 -21 0 -19 -16 7 -42 13 -13 25 -18 33 -12
6 5 38 27 71 48 107 71 294 257 294 292 0 4 7 15 16 25 10 11 16 38 17 72 1
66 -24 103 -98 140 -177 88 -325 108 -790 106 -192 -1 -381 -6 -420 -10z"/>
<path d="M10503 12248 c2 -7 10 -13 17 -13 7 0 15 6 18 13 2 7 -5 12 -18 12
-13 0 -20 -5 -17 -12z"/>
<path d="M15180 12131 c0 -17 5 -31 10 -31 6 0 10 11 10 24 0 14 -4 28 -10 31
-6 4 -10 -7 -10 -24z"/>
<path d="M15230 12065 c0 -8 5 -15 10 -15 6 0 10 7 10 15 0 8 -4 15 -10 15 -5
0 -10 -7 -10 -15z"/>
<path d="M3680 10215 c0 -9 5 -15 11 -13 6 2 11 8 11 13 0 5 -5 11 -11 13 -6
2 -11 -4 -11 -13z"/>
<path d="M3147 10004 c-13 -13 -7 -24 14 -24 11 0 19 5 17 12 -5 14 -22 21
-31 12z"/>
<path d="M5700 8514 c0 -14 4 -23 9 -20 5 3 7 15 4 26 -7 28 -13 25 -13 -6z"/>
<path d="M5630 8470 c0 -5 9 -10 21 -10 11 0 17 5 14 10 -3 6 -13 10 -21 10
-8 0 -14 -4 -14 -10z"/>
<path d="M7432 8418 c-13 -6 -21 -17 -18 -24 3 -9 -6 -10 -35 -7 -39 6 -56
-11 -24 -23 20 -8 19 -23 -2 -31 -31 -11 -53 -35 -53 -58 0 -13 -7 -28 -16
-36 -8 -7 -13 -21 -11 -31 3 -10 1 -21 -4 -24 -5 -3 -9 -16 -9 -29 0 -13 -4
-27 -10 -30 -5 -3 -10 -26 -10 -51 0 -25 -9 -71 -20 -104 -14 -41 -18 -72 -14
-99 4 -26 1 -48 -10 -70 -20 -39 -21 -207 -1 -219 7 -4 17 -17 23 -29 8 -15
18 -20 32 -16 18 5 20 1 18 -28 -3 -31 -1 -34 22 -31 48 5 94 1 107 -10 16
-13 43 -3 43 17 0 18 16 20 24 3 5 -10 8 -9 13 2 3 8 26 35 49 60 l43 45 16
-22 c17 -25 44 -30 62 -12 7 7 17 8 25 3 7 -5 36 -10 63 -10 28 -1 57 -3 65
-3 8 -1 27 1 42 5 23 5 28 2 34 -20 5 -22 12 -26 44 -26 21 0 43 -7 50 -15 12
-14 15 -14 30 0 12 11 20 13 25 6 11 -18 30 -13 70 19 21 17 46 30 55 30 10 0
23 7 30 15 17 20 26 19 52 -7 13 -13 32 -21 44 -20 17 2 23 -3 26 -20 2 -19 8
-22 31 -20 19 2 27 -2 27 -13 0 -23 27 -29 53 -13 22 14 102 15 217 2 42 -5
44 -4 26 10 -17 14 -17 16 -3 22 10 3 28 4 40 0 14 -3 32 1 43 9 10 8 35 15
54 15 26 0 31 3 22 12 -23 23 -12 30 34 23 34 -5 49 -3 55 7 7 10 11 10 21 0
9 -9 9 -15 0 -24 -18 -18 -15 -41 4 -34 9 4 22 2 28 -3 20 -16 106 -23 122
-10 11 9 18 9 26 1 7 -7 17 -12 23 -12 13 0 70 46 71 57 0 5 4 16 8 26 10 21
28 23 20 2 -4 -9 0 -15 9 -15 19 0 26 19 20 53 -4 22 -2 27 15 27 12 0 23 -9
27 -20 3 -11 13 -20 21 -20 8 0 14 -5 14 -10 0 -6 11 -15 25 -20 14 -5 25 -16
25 -23 0 -17 47 -40 55 -27 11 18 35 10 35 -10 0 -23 3 -24 47 -8 28 10 36 10
43 -2 7 -11 13 -12 32 -3 95 47 158 64 158 43 0 -31 178 -67 250 -51 29 6 50
6 62 0 13 -7 30 -7 52 1 18 6 52 8 74 4 33 -5 46 -2 67 14 18 15 35 19 54 16
18 -4 32 0 40 10 8 9 19 16 26 16 7 0 18 7 25 15 7 8 24 15 38 15 14 0 33 7
43 16 15 14 19 13 43 -9 14 -13 26 -29 26 -35 0 -6 11 -23 24 -37 23 -25 26
-25 88 -15 42 6 76 6 98 0 24 -7 52 -6 92 2 45 9 65 9 91 0 44 -16 62 -15 77
3 16 19 40 19 40 0 0 -8 2 -15 5 -15 12 0 55 33 55 41 0 11 60 69 71 69 5 0
13 -9 19 -20 14 -27 33 -15 27 17 -4 22 -2 24 27 17 17 -3 47 -23 67 -43 59
-59 100 -91 119 -91 10 0 23 -7 30 -15 10 -12 24 -14 57 -9 29 4 43 3 43 -5 0
-6 8 -11 17 -11 15 0 15 1 -1 13 -16 12 -16 14 -2 26 11 9 20 10 29 3 6 -5 30
-12 52 -15 22 -3 72 -11 110 -17 39 -6 97 -9 129 -6 35 4 64 2 72 -5 9 -7 19
-6 35 3 17 10 23 10 26 1 6 -15 39 -17 48 -3 3 6 17 10 31 10 13 0 24 -4 24
-10 0 -5 9 -10 19 -10 22 0 71 41 71 59 0 6 9 11 21 11 13 0 25 11 34 33 8 19
21 39 29 47 32 26 11 122 -40 186 -27 34 -42 42 -91 53 -32 7 -63 15 -69 16
-6 2 -11 15 -11 30 0 14 -8 34 -17 44 -15 17 -15 21 4 65 12 26 24 78 27 117
3 39 12 77 20 84 18 19 17 24 -13 36 -25 9 -26 11 -11 27 15 17 13 21 -31 67
-26 27 -46 55 -44 61 5 24 -175 38 -219 17 -15 -7 -29 -19 -32 -28 -4 -8 -12
-15 -19 -15 -7 0 -19 -9 -26 -20 -7 -11 -21 -20 -31 -20 -15 0 -20 -10 -26
-46 -3 -26 -9 -53 -12 -60 -8 -20 -23 -17 -23 5 0 23 -37 71 -55 71 -8 0 -15
12 -17 27 -2 20 -14 32 -48 50 -25 13 -51 31 -58 41 -11 15 -31 17 -142 16
l-129 -2 -44 -36 c-24 -20 -50 -36 -56 -36 -9 0 -11 -9 -6 -30 6 -29 -6 -42
-20 -20 -10 16 -25 1 -25 -24 0 -33 -9 -37 -42 -20 -28 15 -30 34 -2 34 30 0
14 29 -18 32 -26 2 -33 8 -33 25 0 28 -14 41 -25 23 -8 -12 -10 -12 -16 3 -3
9 -11 17 -16 17 -6 0 -16 7 -23 17 -10 13 -31 16 -104 17 -87 1 -93 0 -111
-24 -17 -22 -20 -23 -25 -7 -4 9 -14 17 -22 17 -11 0 -13 -7 -8 -28 7 -33 -18
-63 -37 -44 -8 8 -16 7 -29 -1 -16 -10 -21 -8 -34 11 -9 12 -27 22 -41 22 -14
0 -24 6 -24 15 0 8 -12 17 -27 21 -16 3 -41 10 -58 15 -16 6 -106 14 -200 20
-178 10 -262 2 -286 -27 -7 -9 -20 -12 -32 -8 -10 3 -30 0 -44 -7 -22 -12 -26
-11 -34 4 -19 33 -73 47 -146 38 -60 -7 -70 -12 -98 -44 -33 -38 -44 -40 -147
-28 -5 1 -8 10 -8 20 0 22 -42 41 -48 22 -2 -6 -8 -11 -14 -11 -6 0 -8 7 -4
15 16 44 -237 38 -289 -7 -12 -11 -45 -10 -45 1 0 23 -172 52 -185 31 -3 -6
-14 -10 -24 -10 -10 0 -21 -9 -24 -20 -4 -16 -11 -19 -36 -14 -32 7 -37 0 -33
-47 2 -27 -44 -33 -68 -9 -11 11 -25 20 -30 20 -6 0 -14 10 -19 23 -22 57
-199 74 -264 26 -18 -13 -35 -18 -45 -13 -9 4 -25 6 -34 5 -10 -1 -18 4 -18
12 0 16 -92 32 -169 29 -51 -1 -111 -19 -111 -33 0 -5 -11 -14 -24 -19 -13 -5
-27 -18 -31 -29 -8 -25 -24 -27 -40 -4 -10 13 -16 15 -26 6 -17 -14 -43 2 -53
32 -4 14 -22 25 -54 34 -65 18 -221 24 -250 9z m1520 -203 c-12 -47 -22 -100
-22 -118 0 -18 -5 -48 -10 -67 -6 -19 -15 -64 -20 -100 -30 -203 -97 -288
-265 -331 -195 -51 -370 18 -403 160 -6 28 -9 56 -7 63 6 18 35 204 46 303 5
44 12 103 16 130 l8 50 100 5 c55 3 106 4 113 2 17 -6 15 -36 -8 -127 -11 -43
-20 -97 -20 -119 -1 -23 -7 -68 -15 -101 -8 -33 -15 -83 -15 -111 0 -44 4 -53
30 -72 83 -62 209 13 210 125 1 21 5 58 10 83 6 25 15 86 21 135 6 50 13 113
17 140 l7 50 70 -3 c39 -1 84 1 100 6 22 7 34 6 44 -4 12 -11 11 -25 -7 -99z
m724 101 c78 -3 90 -12 76 -58 -10 -31 -21 -93 -58 -325 -8 -54 -20 -123 -26
-153 -6 -30 -12 -71 -15 -90 -10 -87 -2 -81 -114 -78 l-101 3 -23 40 c-13 22
-42 76 -65 120 -22 44 -45 87 -50 95 -5 8 -18 40 -30 71 -24 59 -55 107 -64
98 -3 -3 -13 -77 -21 -165 -9 -87 -22 -184 -29 -214 l-13 -55 -90 -3 c-103 -3
-104 -3 -93 73 17 115 32 204 46 270 8 39 14 86 14 105 0 19 5 51 12 70 6 19
14 69 17 110 l6 75 110 5 c108 5 154 -2 156 -24 0 -6 10 -30 22 -53 38 -72 63
-126 82 -173 9 -25 21 -52 25 -60 4 -9 11 -30 15 -48 3 -18 12 -32 20 -32 16
0 25 31 25 89 0 24 4 60 10 80 5 20 12 75 16 124 6 94 21 123 56 111 11 -3 49
-7 84 -8z m-1971 -44 c3 -21 8 -48 12 -62 3 -14 8 -58 10 -99 6 -103 42 -155
63 -93 6 15 15 36 22 47 6 11 33 63 60 116 27 53 56 103 66 112 13 11 46 16
130 18 123 4 139 -2 121 -48 -5 -14 -9 -39 -9 -56 0 -34 -24 -197 -45 -312 -8
-38 -19 -116 -25 -173 -6 -57 -13 -109 -16 -117 -6 -15 -169 -14 -184 1 -11
12 3 122 30 244 28 119 35 190 22 190 -6 0 -47 -73 -91 -162 -44 -90 -94 -178
-111 -196 -27 -30 -35 -33 -77 -30 -39 2 -49 7 -59 28 -23 48 -44 176 -44 267
0 50 -4 94 -10 98 -19 12 -43 -47 -51 -128 -4 -45 -12 -102 -18 -127 -6 -25
-11 -63 -11 -85 0 -22 -7 -58 -14 -80 l-14 -40 -89 -6 c-48 -3 -92 -3 -96 1
-5 4 -3 32 3 61 6 30 15 83 21 119 6 36 17 88 25 116 8 28 14 64 14 80 0 26
11 85 42 229 6 27 11 61 10 76 0 15 5 32 12 38 11 10 256 20 283 13 7 -2 15
-20 18 -40z m2500 34 c136 -4 155 -7 202 -30 98 -49 141 -133 129 -249 -12
-115 -23 -162 -49 -211 -36 -66 -94 -135 -122 -146 -13 -5 -26 -14 -30 -19 -3
-6 -15 -11 -26 -11 -11 0 -33 -7 -48 -15 -22 -11 -81 -15 -250 -18 -122 -1
-226 0 -232 4 -7 4 -9 19 -5 40 4 19 13 77 20 129 8 52 19 108 25 123 6 16 11
48 11 72 0 24 6 74 14 112 8 37 17 100 21 138 4 39 11 75 16 81 5 6 41 9 91 7
46 -1 151 -5 233 -7z m698 -6 c10 0 9 -54 -3 -66 -5 -5 -14 -49 -19 -97 -6
-48 -13 -93 -17 -99 -4 -6 -10 -38 -15 -72 -16 -128 -31 -224 -47 -300 l-16
-78 -45 6 c-24 3 -70 6 -102 6 l-59 0 0 48 c0 26 6 79 14 117 31 148 46 244
46 284 0 23 7 76 16 118 8 42 13 85 10 97 -12 44 -9 45 237 36z m595 -17 c6
-9 12 -35 12 -57 0 -23 7 -63 15 -90 8 -27 15 -65 15 -84 0 -34 13 -91 45
-207 24 -82 54 -256 48 -272 -5 -11 -21 -13 -87 -8 -129 10 -122 6 -130 76 -3
34 -11 68 -17 76 -9 11 -42 13 -147 11 l-136 -3 -33 -65 -34 -65 -86 0 c-99 0
-107 7 -75 69 11 22 37 75 57 116 20 41 45 89 55 105 10 17 37 66 60 110 22
44 45 87 50 95 5 8 11 22 14 30 4 8 17 35 31 59 14 24 25 48 25 52 0 4 9 23
19 41 l20 33 133 -3 c109 -3 135 -6 146 -19z m535 -5 c12 -6 16 -15 11 -26 -8
-20 -17 -58 -38 -162 -8 -41 -22 -107 -30 -146 -9 -40 -16 -86 -16 -103 0 -18
-6 -47 -14 -66 -11 -26 -12 -36 -3 -42 7 -4 73 -6 148 -5 90 3 139 0 143 -7 4
-6 4 -45 0 -86 -5 -55 -11 -78 -23 -84 -21 -10 -492 6 -504 18 -9 9 -5 44 28
221 31 165 63 373 70 457 2 18 6 37 10 42 7 12 191 3 218 -11z"/>
<path d="M10080 8131 c-5 -11 -10 -42 -10 -69 0 -27 -7 -69 -15 -92 -8 -23
-15 -57 -15 -76 0 -18 -5 -45 -10 -60 -17 -43 1 -55 74 -47 70 7 139 38 177
80 14 15 34 56 44 91 18 61 18 64 -1 109 -26 62 -66 83 -161 83 -61 0 -74 -3
-83 -19z"/>
<path d="M11300 8120 c0 -10 -63 -141 -88 -182 -14 -22 -14 -29 -2 -42 10 -13
28 -16 89 -14 69 3 76 5 74 23 -7 75 -27 193 -34 208 -10 18 -39 24 -39 7z"/>
<path d="M6550 8413 c-79 -14 -161 -67 -176 -116 -4 -14 -9 -16 -17 -8 -21 21
-29 11 -22 -28 5 -33 3 -41 -13 -50 -11 -6 -22 -24 -25 -40 -4 -16 -20 -45
-37 -64 -17 -20 -28 -41 -24 -50 3 -8 1 -18 -4 -21 -5 -3 -22 -30 -37 -61 -16
-30 -41 -69 -57 -87 -15 -17 -28 -35 -28 -40 0 -17 -29 -7 -35 12 -4 12 -15
20 -30 20 -39 0 -42 68 -7 225 4 17 5 60 2 96 -7 86 -41 138 -111 168 -72 31
-103 36 -118 17 -11 -12 -17 -14 -27 -5 -11 9 -18 8 -29 -1 -18 -15 -45 -6
-45 15 0 9 -5 13 -10 10 -6 -4 -7 -11 -4 -17 4 -6 -4 -19 -17 -28 -20 -16 -21
-20 -10 -34 12 -14 11 -16 -6 -16 -13 0 -23 -12 -32 -37 -7 -21 -16 -47 -20
-58 -21 -51 -31 -94 -31 -129 0 -23 -5 -39 -15 -42 -11 -5 -15 -21 -15 -60 0
-44 -3 -54 -17 -54 -13 0 -14 -3 -5 -12 14 -14 16 -48 3 -48 -14 0 -19 -32 -9
-59 6 -16 3 -40 -7 -71 -24 -73 -24 -146 0 -165 14 -12 16 -18 8 -21 -7 -3
-13 -10 -13 -16 0 -12 41 -47 56 -48 7 0 14 -7 18 -15 3 -8 12 -15 19 -15 8 0
20 -7 27 -15 11 -13 42 -14 214 -9 150 5 205 10 217 20 21 18 48 18 55 -1 8
-19 24 -20 24 -1 0 24 18 28 45 10 23 -15 28 -15 59 0 41 19 58 20 74 4 13
-13 24 -3 35 26 2 5 13 4 25 -3 20 -11 22 -10 22 19 0 23 6 33 24 40 13 5 27
13 30 19 4 6 13 8 20 5 8 -3 16 4 19 15 3 12 13 21 23 21 23 0 124 -50 124
-61 0 -5 7 -9 15 -9 9 0 18 -7 21 -15 4 -8 12 -15 20 -15 7 0 22 -10 33 -21
18 -19 23 -20 49 -10 22 9 40 10 68 2 52 -15 64 -14 64 4 0 9 20 35 44 59 65
63 66 79 23 331 -7 44 -19 90 -26 103 -7 12 -9 31 -6 42 3 10 -1 29 -9 42 -26
40 -38 109 -28 156 10 43 5 51 -16 30 -19 -19 -37 4 -23 30 17 33 13 42 -19
42 -20 0 -33 6 -37 17 -11 29 -56 62 -93 67 -64 9 -145 14 -170 9z m216 -115
c4 -7 11 -30 15 -53 5 -22 12 -62 18 -90 5 -27 14 -63 20 -78 6 -16 11 -43 11
-61 0 -19 7 -53 15 -76 8 -23 15 -58 15 -77 0 -18 7 -50 15 -70 8 -19 15 -49
15 -65 0 -16 7 -45 15 -65 8 -19 15 -46 15 -59 0 -24 -1 -24 -105 -24 -118 0
-105 -11 -122 100 l-8 55 -140 -3 c-77 -2 -144 -8 -149 -13 -10 -9 -34 -69
-43 -107 -7 -30 -25 -38 -103 -46 -36 -3 -74 -7 -85 -9 -24 -3 -32 27 -14 50
14 16 37 71 46 110 3 12 11 28 19 34 8 6 14 22 14 34 0 12 7 28 15 35 8 7 15
16 15 21 0 7 114 242 139 289 9 16 27 54 58 127 l18 42 135 3 c74 2 138 5 142
6 4 1 10 -3 14 -10z m-818 -21 c8 -9 7 -24 -3 -52 -8 -22 -14 -54 -15 -72 0
-17 -5 -44 -11 -60 -6 -15 -15 -59 -19 -98 -5 -38 -17 -107 -26 -153 -10 -48
-13 -87 -8 -92 5 -5 65 -6 132 -2 106 6 125 5 132 -8 5 -9 3 -25 -6 -40 -7
-14 -13 -37 -14 -51 0 -30 -19 -89 -28 -90 -33 -3 -168 -7 -312 -10 l-175 -4
3 55 c2 30 7 60 12 65 4 6 13 43 19 84 7 41 14 78 18 83 3 6 9 35 14 66 4 32
12 77 18 102 17 80 34 174 40 225 l6 50 60 5 c118 10 153 10 163 -3z"/>
<path d="M6581 8107 c-11 -13 -21 -28 -21 -34 0 -17 -41 -106 -57 -125 -8 -9
-13 -27 -11 -39 3 -22 7 -24 78 -23 74 1 75 1 78 28 2 15 -4 45 -12 67 -9 22
-16 62 -16 89 0 58 -10 67 -39 37z"/>
<path d="M4940 8221 c0 -5 -16 -12 -35 -15 -19 -4 -47 -13 -62 -21 -15 -8 -39
-15 -53 -15 -14 0 -34 -7 -44 -15 -11 -8 -34 -15 -51 -15 -17 0 -36 -5 -42
-11 -6 -6 -26 -14 -44 -19 -19 -5 -59 -16 -89 -25 -129 -38 -161 -47 -265 -76
-60 -16 -134 -34 -164 -40 -30 -5 -58 -12 -63 -16 -11 -6 -105 -28 -181 -43
-26 -5 -62 -13 -80 -19 -68 -20 -124 -33 -185 -41 -35 -5 -67 -12 -73 -15 -10
-7 -161 -30 -289 -45 -103 -12 -387 -16 -490 -7 -129 12 -243 44 -375 108 -62
30 -98 56 -160 118 -94 94 -145 110 -100 31 8 -14 14 -34 15 -46 0 -11 9 -29
19 -38 11 -10 21 -28 23 -40 2 -12 11 -22 24 -24 11 -2 34 -21 50 -42 20 -28
42 -44 69 -52 22 -6 47 -17 55 -24 29 -24 144 -64 182 -64 22 0 49 -5 61 -12
12 -6 89 -17 172 -24 184 -17 542 -3 561 21 8 10 14 11 21 4 8 -8 22 -8 48 1
20 7 49 10 63 7 15 -3 41 1 57 8 34 15 63 22 150 37 33 5 73 16 88 24 16 8 42
14 58 14 16 0 46 7 66 15 19 8 53 15 75 15 21 0 52 7 67 15 25 13 124 38 206
52 17 3 34 12 38 19 4 8 23 14 42 14 19 0 37 5 40 10 3 6 22 10 41 10 36 0
135 40 166 68 14 12 21 12 33 2 12 -10 22 -8 54 8 22 12 50 26 63 33 13 7 30
16 38 21 8 4 43 23 78 40 34 18 62 38 62 44 0 7 14 15 30 19 17 4 30 13 30 21
0 8 7 14 15 14 8 0 15 5 15 10 0 6 -7 10 -15 10 -8 0 -15 -4 -15 -9z"/>
<path d="M10480 7571 c0 -5 7 -11 15 -15 9 -3 15 0 15 9 0 8 -7 15 -15 15 -8
0 -15 -4 -15 -9z"/>
<path d="M10693 7478 c2 -7 12 -13 22 -13 10 0 20 6 23 13 2 7 -6 12 -23 12
-17 0 -25 -5 -22 -12z"/>
</g>
</svg>
